<?xml version="1.0" standalone="no"?>
<!DOCTYPE svg PUBLIC "-//W3C//DTD SVG 20010904//EN"
 "http://www.w3.org/TR/2001/REC-SVG-20010904/DTD/svg10.dtd">
<svg version="1.0" xmlns="http://www.w3.org/2000/svg"
 width="300.000000pt" height="300.000000pt" viewBox="0 0 300.000000 300.000000"
 preserveAspectRatio="xMidYMid meet">
<metadata>
Created by potrace 1.10, written by Peter Selinger 2001-2011
</metadata>
<g transform="translate(0.000000,300.000000) scale(0.100000,-0.100000)"
fill="#000000" stroke="none">
<path d="M1324 2511 c-25 -4 -54 -30 -64 -57 -5 -12 -1 -128 10 -264 21 -279
16 -267 126 -343 38 -26 70 -54 72 -62 2 -9 15 -15 32 -15 17 0 30 6 32 15 2
8 34 36 72 62 110 76 105 64 126 343 11 136 15 252 10 264 -20 53 -35 57 -222
59 -96 1 -183 0 -194 -2z m154 -43 c-6 -18 -22 -20 -42 -5 -16 11 -14 13 14
15 21 2 30 -2 28 -10z m-127 -123 c10 -140 10 -383 0 -390 -5 -3 -12 -1 -15 3
-9 16 -40 447 -33 466 4 10 15 16 24 14 15 -3 19 -18 24 -93z m87 -140 c2
-230 0 -267 -18 -249 -11 11 -43 461 -34 476 3 5 16 8 27 6 22 -3 22 -6 25
-233z m87 223 c2 -7 1 -116 -3 -243 -6 -195 -9 -230 -22 -230 -13 0 -16 35
-22 225 -3 124 -4 233 -2 243 6 20 42 23 49 5z m90 3 c6 -11 -23 -459 -31
-472 -18 -30 -24 26 -24 236 0 177 3 235 13 238 20 9 35 8 42 -2z m82 -3 c9
-12 -20 -433 -32 -466 -3 -7 -10 -10 -16 -6 -9 5 -10 67 -5 237 3 126 9 233
12 238 8 13 30 11 41 -3z m-289 -490 c10 -10 17 -10 32 0 16 10 24 10 40 0 15
-10 24 -10 38 -1 13 7 24 8 37 1 13 -8 24 -7 36 0 19 12 49 6 49 -9 0 -10 -11
-20 -83 -73 -26 -20 -52 -36 -57 -36 -5 0 -33 18 -62 40 -29 22 -56 40 -59 40
-14 0 -19 34 -7 42 17 11 22 10 36 -4z"/>
<path d="M2377 2136 c-119 -43 -280 -239 -414 -506 l-63 -125 -178 -167 -177
-167 -6 232 c-4 128 -7 259 -8 292 -1 60 -1 60 -31 60 l-30 0 -1 -70 c-1 -38
-4 -170 -8 -291 l-6 -222 -215 203 -215 203 -22 -21 -23 -20 157 -166 c86 -91
188 -198 225 -237 l69 -70 -176 -164 c-147 -137 -175 -168 -175 -192 0 -34 31
-68 63 -68 23 0 66 41 238 226 l65 70 -4 -192 c-3 -106 -2 -203 1 -217 12 -44
88 -56 112 -17 9 14 8 312 -1 380 l-5 45 47 -50 c26 -27 90 -94 141 -148 101
-105 123 -115 161 -74 40 42 30 61 -90 175 -62 59 -142 135 -177 168 l-65 62
90 93 c49 52 123 130 164 174 41 44 81 84 88 88 17 11 15 27 -5 49 -9 10 -11
18 -5 18 6 0 15 -8 21 -17 9 -16 21 -12 133 44 242 122 409 248 488 365 33 49
40 69 40 108 0 57 -39 118 -93 143 -42 20 -60 21 -110 3z m73 0 c0 -2 -20 -14
-45 -26 -67 -32 -194 -157 -283 -278 -91 -123 -135 -192 -129 -198 3 -3 15 12
28 33 100 167 309 397 395 435 69 30 85 18 27 -19 -65 -42 -266 -250 -378
-391 -51 -64 -92 -107 -95 -101 -5 7 -9 5 -13 -6 -5 -10 -3 -14 4 -9 7 4 10 1
7 -7 -3 -8 -10 -13 -16 -12 -6 1 -9 -14 -7 -38 2 -27 0 -39 -8 -36 -12 4 -13
24 -3 65 6 27 119 227 178 316 85 128 195 233 275 262 39 13 63 17 63 10z
m-193 -304 c-147 -147 -267 -272 -267 -277 0 -5 122 112 270 260 216 215 272
267 280 255 32 -50 -4 -123 -118 -238 -72 -72 -237 -201 -325 -252 -21 -12
-35 -25 -32 -28 7 -7 193 118 275 186 107 88 202 201 220 260 8 26 8 26 9 -6
3 -107 -168 -269 -452 -429 -45 -25 -90 -45 -100 -45 -10 0 -15 -4 -11 -10 4
-7 2 -8 -5 -4 -6 4 -18 3 -26 -4 -14 -12 -22 -5 -21 21 1 25 233 304 347 418
100 100 179 161 208 161 9 0 -104 -120 -252 -268z m-905 -610 c7 -17 76 -62
95 -62 18 0 29 15 49 65 7 18 8 17 12 -7 2 -15 15 -37 29 -48 28 -22 38 -19
87 24 46 40 42 31 -9 -26 -77 -85 -80 -93 -60 -125 10 -16 43 -52 74 -81 151
-145 191 -185 191 -192 0 -4 -6 -13 -14 -19 -20 -16 -36 -4 -116 84 -36 40
-80 83 -98 96 l-34 23 -19 -25 c-18 -22 -19 -38 -16 -167 l3 -143 -25 3 -26 3
3 143 c3 125 1 146 -14 163 -9 10 -24 19 -33 19 -9 0 -62 -48 -118 -107 -88
-93 -103 -105 -117 -94 -9 8 -16 17 -16 22 0 5 37 43 82 86 219 207 217 203
143 282 -25 26 -42 51 -38 54 3 4 0 7 -8 7 -8 0 -22 12 -33 26 -18 26 -18 26
2 15 11 -6 22 -14 24 -19z m-175 -498 c3 -8 -1 -22 -9 -30 -12 -12 -17 -12
-33 -1 -23 17 -14 47 15 47 11 0 23 -7 27 -16z m697 1 c7 -19 -20 -46 -39 -39
-15 6 -20 35 -8 47 12 12 41 7 47 -8z m-347 -151 c3 -8 -2 -23 -11 -32 -14
-15 -18 -15 -31 -1 -9 9 -13 23 -9 32 8 21 43 22 51 1z"/>
<path d="M2520 2029 c-29 -68 -478 -484 -525 -484 -17 0 -28 -11 -31 -31 -2
-11 7 -8 31 10 38 30 54 34 34 9 -13 -15 -12 -15 10 -4 16 9 20 15 12 21 -8 5
11 25 56 61 232 182 445 399 431 440 -2 7 -10 -3 -18 -22z"/>
<path d="M518 2122 c-14 -2 -38 -15 -53 -30 -25 -25 -27 -32 -23 -97 8 -157
149 -361 291 -420 30 -13 57 -14 123 -9 62 5 88 3 99 -6 14 -11 19 -10 37 8
18 17 19 24 9 36 -10 12 -11 38 -6 104 6 79 5 93 -16 136 -68 146 -319 297
-461 278z m8 -63 c10 -17 -13 -36 -27 -22 -12 12 -4 33 11 33 5 0 12 -5 16
-11z m220 -70 c10 -17 -13 -36 -27 -22 -12 12 -4 33 11 33 5 0 12 -5 16 -11z
m-120 -30 c10 -17 -13 -36 -27 -22 -12 12 -4 33 11 33 5 0 12 -5 16 -11z m122
-46 c-2 -10 -10 -18 -18 -18 -8 0 -16 8 -18 18 -2 12 3 17 18 17 15 0 20 -5
18 -17z m-182 -4 c10 -17 -13 -36 -27 -22 -12 12 -4 33 11 33 5 0 12 -5 16
-11z m111 -4 c7 -20 -2 -29 -21 -22 -9 4 -13 13 -10 22 8 19 23 19 31 0z m191
-22 c5 -17 -26 -29 -40 -15 -6 6 -7 15 -3 22 9 14 37 9 43 -7z m-70 -26 c2
-12 -3 -17 -17 -17 -15 0 -21 6 -21 21 0 25 33 22 38 -4z m-198 -21 c0 -8 -5
-18 -11 -22 -14 -8 -33 11 -25 25 10 16 36 13 36 -3z m65 -6 c0 -22 -29 -18
-33 3 -3 14 1 18 15 15 10 -2 18 -10 18 -18z m185 -20 c0 -13 -7 -20 -20 -20
-19 0 -27 20 -13 33 13 14 33 6 33 -13z m78 -3 c4 -20 -25 -34 -40 -19 -15 15
-1 44 19 40 10 -2 19 -11 21 -21z m-140 -14 c-5 -26 -38 -29 -38 -4 0 15 6 21
21 21 14 0 19 -5 17 -17z m-68 -14 c0 -25 -33 -22 -38 4 -2 12 3 17 17 17 15
0 21 -6 21 -21z m127 -30 c16 -16 5 -39 -17 -39 -25 0 -35 18 -20 35 15 18 22
19 37 4z m83 -4 c15 -18 5 -35 -21 -35 -12 0 -19 7 -19 18 0 33 20 42 40 17z
m-160 -15 c0 -21 -24 -28 -35 -10 -8 14 3 30 21 30 8 0 14 -9 14 -20z m-73 -6
c8 -21 -13 -42 -28 -27 -13 13 -5 43 11 43 6 0 13 -7 17 -16z m83 -64 c0 -24
-26 -38 -42 -22 -16 16 -2 42 22 42 13 0 20 -7 20 -20z m148 -3 c4 -20 -25
-34 -40 -19 -15 15 -1 44 19 40 10 -2 19 -11 21 -21z m-75 -1 c9 -22 -19 -42
-37 -26 -19 15 -10 40 14 40 10 0 20 -6 23 -14z"/>
</g>
</svg>
