<?xml version="1.0" standalone="no"?>
<!DOCTYPE svg PUBLIC "-//W3C//DTD SVG 20010904//EN"
 "http://www.w3.org/TR/2001/REC-SVG-20010904/DTD/svg10.dtd">
<svg version="1.0" xmlns="http://www.w3.org/2000/svg"
 width="259.000000pt" height="194.000000pt" viewBox="0 0 259.000000 194.000000"
 preserveAspectRatio="xMidYMid meet">
<metadata>
Created by potrace 1.10, written by Peter Selinger 2001-2011
</metadata>
<g transform="translate(0.000000,194.000000) scale(0.100000,-0.100000)"
fill="#000000" stroke="none">
<path d="M361 1356 c-62 -35 -117 -68 -121 -73 -5 -4 29 -86 76 -182 l84 -173
-55 -63 c-30 -34 -55 -67 -55 -73 0 -6 25 -14 55 -17 l55 -7 2 -186 3 -186
250 -43 c138 -23 264 -42 281 -42 22 -1 59 20 145 82 l114 83 5 274 5 275 83
144 c45 79 80 146 79 148 -2 2 -37 -21 -78 -50 -41 -29 -79 -56 -86 -60 -7 -4
-119 4 -249 18 -138 16 -240 23 -245 18 -5 -5 -22 -40 -38 -78 l-29 -69 -27
59 c-96 219 -119 265 -129 265 -6 -1 -62 -29 -125 -64z m198 -106 c39 -85 70
-158 69 -162 -2 -4 -52 -38 -112 -76 l-110 -70 -64 132 c-79 162 -94 198 -87
205 9 8 229 130 232 128 1 -1 33 -72 72 -157z m705 -101 c-72 -128 -79 -136
-152 -189 -42 -30 -89 -64 -106 -75 l-31 -20 21 35 c12 19 47 81 79 138 32 57
69 110 82 119 13 9 22 18 19 20 -11 12 -58 -34 -87 -85 -17 -31 -32 -58 -33
-59 0 0 -91 11 -201 26 -143 20 -199 31 -197 40 1 7 16 41 32 77 27 60 30 63
57 59 15 -3 116 -14 223 -25 107 -12 202 -23 210 -25 8 -2 47 20 85 49 39 29
71 52 73 51 1 -1 -32 -62 -74 -136z m-409 -104 c104 -14 190 -27 191 -28 2 -2
-85 -157 -92 -165 -3 -4 -254 35 -286 44 -16 5 -18 18 -18 95 0 50 4 88 8 85
4 -2 93 -16 197 -31z m-220 -60 l0 -85 -30 6 c-16 3 -65 10 -109 17 l-78 12
103 67 c57 36 106 66 109 67 3 1 5 -37 5 -84z m554 -242 l0 -258 -115 -82
-114 -82 0 257 0 258 113 82 c61 44 113 81 115 81 1 1 2 -115 1 -256z m-502
135 l262 -42 1 -258 c0 -142 -1 -258 -3 -258 -8 0 -493 80 -514 85 -23 5 -23
7 -23 180 0 96 3 175 8 175 4 0 97 -18 207 -40 110 -22 205 -40 212 -40 13 0
108 128 101 136 -3 2 -25 -25 -49 -61 -34 -51 -48 -64 -64 -61 -11 3 -130 26
-265 52 -135 26 -247 48 -249 50 -6 5 93 124 104 124 6 0 128 -19 272 -42z"/>
<path d="M1657 1013 l-117 -75 2 -271 3 -271 250 -43 c138 -23 264 -42 281
-42 23 -1 58 20 145 82 l114 83 3 272 c1 186 -1 272 -8 272 -6 0 -131 16 -277
35 -147 19 -269 35 -272 34 -3 0 -59 -34 -124 -76z m408 27 c132 -17 246 -33
253 -35 9 -3 12 -64 11 -262 l0 -258 -115 -82 -114 -82 0 258 0 258 110 78
c60 44 108 81 105 83 -2 2 -25 -11 -51 -29 l-47 -32 -246 37 c-135 21 -253 40
-260 42 -23 7 69 64 94 59 11 -3 128 -18 260 -35z m-115 -75 c124 -20 232 -36
240 -38 8 -1 -10 -19 -40 -41 l-54 -39 -253 42 c-139 24 -261 41 -270 39 -10
-2 102 -24 250 -48 l267 -44 0 -258 c0 -142 -2 -258 -4 -258 -7 0 -493 80
-513 85 l-23 5 0 260 0 260 63 40 c44 28 69 38 87 35 14 -3 126 -21 250 -40z"/>
</g>
</svg>
