<?xml version="1.0" standalone="no"?>
<!DOCTYPE svg PUBLIC "-//W3C//DTD SVG 20010904//EN"
 "http://www.w3.org/TR/2001/REC-SVG-20010904/DTD/svg10.dtd">
<svg version="1.0" xmlns="http://www.w3.org/2000/svg"
 width="216.000000pt" height="233.000000pt" viewBox="0 0 216.000000 233.000000"
 preserveAspectRatio="xMidYMid meet">
<metadata>
Created by potrace 1.10, written by Peter Selinger 2001-2011
</metadata>
<g transform="translate(0.000000,233.000000) scale(0.100000,-0.100000)"
fill="#000000" stroke="none">
<path d="M845 1772 c-129 -45 -254 -126 -390 -254 -97 -90 -130 -193 -80 -248
13 -14 16 -38 15 -116 -3 -155 -1 -277 6 -307 3 -17 13 -29 27 -31 104 -21
305 -47 407 -52 88 -4 135 -11 160 -23 37 -19 148 -35 238 -34 38 0 61 6 81
21 26 19 44 21 226 24 237 4 230 0 220 118 -6 78 -7 85 -5 185 1 52 5 62 23
70 14 6 25 24 31 49 13 57 -9 190 -41 244 -26 46 -58 64 -193 114 -30 12 -84
38 -120 59 -36 21 -108 54 -160 73 -127 46 -135 49 -221 89 -105 50 -129 52
-224 19z m215 -38 c41 -20 113 -49 160 -65 47 -17 144 -59 215 -94 72 -35 166
-79 210 -97 74 -30 82 -37 103 -79 16 -32 25 -72 29 -131 7 -96 -4 -131 -40
-126 -18 2 -24 13 -32 60 -18 102 -72 127 -138 63 -20 -19 -41 -35 -47 -35
-10 0 -28 18 -60 60 l-18 25 -46 -23 c-26 -12 -65 -22 -90 -22 -80 0 -101 -54
-100 -260 0 -161 10 -198 65 -228 68 -39 -3 -60 -146 -42 -58 8 -105 17 -105
22 0 4 17 16 38 27 20 11 48 36 62 57 25 37 25 41 22 206 -3 175 -9 207 -44
246 -24 25 -56 28 -123 10 -39 -11 -49 -10 -74 5 -34 20 -60 21 -82 4 -31 -24
-39 -56 -39 -155 0 -79 -3 -102 -16 -113 -14 -11 -19 -10 -35 10 -23 28 -24
69 -3 157 25 110 -1 165 -71 145 -24 -6 -46 -6 -66 1 -38 13 -74 -4 -95 -44
-21 -42 -58 -62 -84 -48 -27 14 -42 54 -34 88 14 62 56 112 174 208 157 129
335 221 405 209 17 -3 64 -21 105 -41z m-413 -396 c46 14 61 7 69 -34 9 -49
-2 -88 -24 -79 -9 4 -57 10 -107 12 -49 3 -94 9 -99 13 -4 4 3 23 15 41 36 51
48 58 82 46 20 -7 40 -6 64 1z m248 -44 c24 -16 37 -16 123 2 42 8 77 -9 93
-48 6 -16 10 -31 7 -33 -6 -6 -140 -10 -235 -7 l-83 2 0 30 c0 32 30 70 55 70
9 0 27 -7 40 -16z m569 -39 c36 -46 80 -48 121 -5 16 17 37 30 46 30 26 0 49
-28 49 -57 l0 -26 -212 6 c-116 4 -213 9 -216 12 -3 2 1 11 8 20 8 9 30 15 59
15 29 0 57 7 76 20 17 11 33 20 36 20 4 0 19 -16 33 -35z m-996 -17 c8 -8 54
-15 116 -19 108 -6 128 -11 120 -33 -4 -10 -14 -12 -37 -6 -18 5 -72 10 -120
12 -80 4 -89 3 -99 -15 -10 -20 -7 -131 5 -143 3 -3 39 -8 79 -11 40 -3 102
-11 138 -20 39 -8 145 -17 263 -20 187 -5 197 -7 197 -25 0 -19 -6 -19 -182
-13 -101 3 -214 12 -253 20 -38 7 -109 16 -157 18 -101 5 -102 5 -96 -90 2
-37 -1 -58 -9 -60 -6 -2 -14 4 -17 14 -10 33 -8 379 3 401 4 7 39 0 49 -10z
m656 -56 c13 -22 -20 -27 -166 -24 -130 2 -158 6 -158 17 0 13 27 15 159 15
88 0 162 -4 165 -8z m564 -10 c4 -14 -89 -22 -275 -22 -167 0 -173 1 -173 20
0 20 4 20 222 16 123 -3 224 -9 226 -14z m-1022 -8 c31 -4 31 -6 27 -47 -10
-90 83 -135 106 -52 5 19 7 44 4 55 -5 19 -1 20 156 20 l161 0 0 -47 c0 -27 3
-58 6 -70 l6 -23 -184 0 c-123 0 -202 5 -238 14 -30 7 -93 16 -139 20 -47 3
-89 10 -94 15 -10 10 -13 103 -4 118 5 8 134 7 193 -3z m1051 -54 c14 -28 17
-79 4 -98 -9 -15 -352 -29 -443 -18 l-58 7 0 44 c0 24 4 54 9 67 l9 23 233 0
233 0 13 -25z m3 -151 c0 -18 -13 -19 -244 -19 -230 0 -267 4 -253 28 3 4 116
8 251 8 234 1 246 0 246 -17z m-1018 -14 c37 -8 116 -16 175 -16 59 -1 140 -4
180 -8 l72 -6 -19 -42 c-15 -34 -29 -47 -75 -69 -65 -30 -89 -30 -370 2 -171
20 -190 28 -199 87 -11 70 -7 73 87 69 45 -2 112 -10 149 -17z m1022 -31 c12
-33 6 -111 -10 -125 -11 -9 -66 -14 -193 -17 -175 -4 -178 -4 -217 20 -51 33
-64 49 -71 92 l-6 36 234 3 c129 1 239 3 245 5 7 1 15 -5 18 -14z"/>
<path d="M984 1665 c-75 -16 -131 -44 -204 -101 -89 -68 -177 -93 -232 -63
-15 8 -23 8 -32 -1 -21 -22 21 -39 86 -35 67 4 151 41 235 103 47 36 135 70
222 87 58 12 31 -13 -53 -50 -96 -42 -146 -75 -169 -114 -23 -39 -22 -49 8
-63 22 -10 43 -2 188 71 155 78 216 99 227 76 3 -5 -26 -26 -65 -45 -73 -37
-104 -72 -83 -97 18 -22 69 -15 125 17 55 31 170 66 181 55 3 -3 -2 -18 -11
-34 -23 -39 -7 -51 65 -51 45 0 58 3 58 15 0 17 -27 19 -64 5 -33 -12 -44 4
-21 30 39 43 -17 69 -108 50 -29 -6 -81 -28 -116 -49 -57 -35 -91 -43 -91 -21
0 13 35 39 98 70 35 17 66 38 69 47 8 20 -22 43 -56 43 -45 -1 -155 -45 -229
-93 -124 -80 -162 -94 -162 -59 0 29 39 59 146 111 112 55 133 73 114 96 -15
18 -44 18 -126 0z"/>
<path d="M523 80 c0 -25 2 -35 4 -22 2 12 9 22 14 22 5 0 9 -10 9 -22 0 -19 2
-20 10 -8 6 10 10 11 10 3 0 -7 9 -13 20 -13 14 0 20 7 21 23 l0 22 9 -22 c5
-13 15 -23 22 -22 10 0 10 2 1 6 -18 7 -16 33 2 33 8 0 14 -3 14 -7 -3 -17 1
-33 9 -33 6 0 7 16 3 64 -1 5 -8 2 -18 -5 -12 -11 -17 -11 -20 -2 -6 17 -33
-9 -33 -31 0 -9 -4 -16 -10 -16 -5 0 -10 10 -10 23 0 18 -2 19 -10 7 -6 -10
-10 -11 -10 -2 0 6 -6 12 -14 12 -8 0 -17 8 -19 18 -3 9 -5 -3 -4 -28z"/>
<path d="M930 105 c0 -15 -7 -17 -60 -19 -18 -1 -25 -7 -25 -21 0 -17 7 -20
53 -21 28 0 52 3 52 7 0 4 8 16 18 25 16 17 16 18 0 11 -13 -5 -18 -1 -18 13
0 11 -4 20 -10 20 -5 0 -10 -7 -10 -15z"/>
<path d="M812 78 c2 -17 9 -33 16 -36 11 -3 12 0 3 17 -8 13 -8 21 -2 21 6 0
8 7 5 15 -11 27 -25 16 -22 -17z"/>
<path d="M1260 89 c-18 -32 -6 -47 38 -47 44 -1 63 20 34 38 -15 8 -15 11 -2
20 13 8 13 10 -2 10 -25 0 -34 -21 -15 -35 10 -7 17 -15 17 -19 0 -12 -20 -6
-39 13 -14 14 -16 22 -8 30 8 8 8 11 -1 11 -6 0 -16 -9 -22 -21z"/>
<path d="M1360 100 c-10 -6 -11 -10 -2 -10 6 0 12 -9 12 -19 0 -11 -6 -22 -12
-24 -7 -3 8 -5 35 -5 26 0 47 5 47 9 0 5 9 4 21 -3 17 -11 22 -10 30 5 13 22
33 22 25 -1 -4 -12 0 -10 13 6 11 13 18 29 15 36 -7 18 -84 18 -91 0 -3 -8
-12 -14 -20 -14 -13 0 -13 3 -3 15 10 12 10 15 0 15 -6 0 -17 -13 -23 -30 -14
-38 -25 -38 -29 0 -2 23 -6 28 -18 20z"/>
<path d="M1563 103 c21 -5 21 -8 1 -38 -10 -15 -12 -25 -5 -25 6 0 17 15 25
33 9 19 15 25 15 15 1 -10 8 -18 16 -18 21 0 19 -20 -2 -21 -12 0 -13 -2 -5
-6 7 -3 20 1 28 8 14 11 13 15 -8 31 l-23 18 38 0 c41 0 44 -5 21 -38 -8 -12
-11 -22 -6 -22 7 0 18 18 40 62 1 4 -32 7 -75 6 -43 -1 -70 -3 -60 -5z"/>
<path d="M686 74 c-8 -21 1 -34 22 -33 11 0 12 3 5 6 -7 2 -13 11 -13 19 0 8
6 11 17 7 11 -4 14 -3 9 5 -10 17 -33 15 -40 -4z"/>
<path d="M741 63 c2 -24 2 -25 6 -5 5 25 16 28 32 8 9 -11 9 -15 -1 -19 -8 -4
-7 -6 4 -6 13 -1 17 6 16 24 -2 20 -8 25 -30 25 -24 0 -28 -4 -27 -27z"/>
<path d="M1012 68 c3 -20 9 -23 51 -24 39 -1 47 2 47 18 0 26 20 22 21 -4 1
-22 1 -22 9 2 8 24 8 24 9 3 1 -13 6 -23 12 -23 6 0 9 10 7 23 -3 20 -9 22
-59 24 -49 2 -58 -1 -62 -18 -3 -10 -10 -19 -16 -19 -15 0 -14 27 2 33 7 3 4
6 -6 6 -14 1 -18 -5 -15 -21z"/>
</g>
</svg>
