<?xml version="1.0" standalone="no"?>
<!DOCTYPE svg PUBLIC "-//W3C//DTD SVG 20010904//EN"
 "http://www.w3.org/TR/2001/REC-SVG-20010904/DTD/svg10.dtd">
<svg version="1.0" xmlns="http://www.w3.org/2000/svg"
 width="225.000000pt" height="225.000000pt" viewBox="0 0 225.000000 225.000000"
 preserveAspectRatio="xMidYMid meet">
<metadata>
Created by potrace 1.10, written by Peter Selinger 2001-2011
</metadata>
<g transform="translate(0.000000,225.000000) scale(0.100000,-0.100000)"
fill="#000000" stroke="none">
<path d="M1626 1712 c-88 -32 -146 -85 -147 -133 -1 -30 -13 -45 -106 -128
l-105 -94 26 -25 25 -26 59 65 c32 35 75 83 96 107 28 30 46 42 66 42 53 0
108 65 146 173 8 22 13 41 12 43 -2 1 -34 -10 -72 -24z m4 -53 c0 -36 -55 -99
-87 -99 -31 0 -31 39 0 67 42 38 87 55 87 32z m-120 -125 c0 -4 -33 -41 -74
-83 -41 -42 -83 -87 -94 -101 -11 -14 -24 -22 -28 -18 -4 5 35 52 87 107 87
92 109 111 109 95z"/>
<path d="M1014 1596 c-23 -7 -70 -30 -105 -51 -156 -93 -252 -194 -314 -330
-45 -96 -58 -165 -53 -272 3 -72 9 -101 32 -146 15 -31 31 -57 34 -57 4 1 27
26 52 56 25 31 145 153 267 271 l223 215 -25 20 c-35 27 -40 72 -16 147 28 86
27 115 -5 140 -31 24 -34 24 -90 7z m67 -42 c10 -13 10 -26 0 -72 -23 -98 -24
-128 -6 -166 17 -35 17 -36 -9 -67 -15 -17 -44 -45 -66 -63 -21 -17 -39 -37
-39 -45 -1 -8 -4 -11 -8 -8 -3 4 -11 -3 -17 -14 -6 -12 -14 -20 -18 -18 -4 2
-15 -6 -23 -18 -22 -31 -36 -28 -60 9 -28 44 -65 69 -111 75 -32 4 -46 0 -81
-26 -24 -17 -45 -31 -47 -31 -10 0 30 99 61 150 34 57 62 91 104 125 24 20 24
20 7 0 -46 -56 -26 -156 39 -197 117 -72 255 62 183 179 -10 18 -31 40 -45 49
-31 20 -102 22 -136 3 -22 -11 -23 -11 -9 5 35 44 212 146 251 146 9 0 22 -7
30 -16z m-138 -178 c14 -13 29 -36 33 -50 30 -121 -143 -178 -191 -62 -18 42
-8 81 27 111 40 34 96 34 131 1z m-189 -250 c74 -31 88 -106 32 -162 -40 -40
-89 -46 -129 -14 -32 26 -51 79 -38 111 13 36 61 75 94 78 4 1 23 -5 41 -13z
m-97 -211 c31 -19 44 -45 23 -45 -5 0 -10 -7 -10 -15 0 -8 -5 -15 -11 -15 -6
0 -17 -7 -26 -15 -11 -11 -19 -13 -28 -5 -24 20 -47 155 -29 173 4 3 16 -8 28
-26 12 -18 36 -41 53 -52z"/>
<path d="M1595 1509 c-16 -10 -39 -19 -51 -19 -14 0 -57 -39 -129 -117 -59
-65 -195 -209 -302 -320 -177 -185 -193 -204 -183 -224 16 -30 4 -82 -25 -109
-26 -24 -83 -32 -115 -17 -11 5 -29 -4 -55 -27 l-40 -34 66 -31 c124 -59 249
-73 387 -45 166 34 321 122 444 253 147 156 205 333 167 509 -13 61 -64 147
-104 177 -30 22 -30 22 -60 4z m57 -48 c13 -11 32 -39 42 -63 10 -24 22 -51
27 -61 10 -19 4 -37 -11 -37 -5 0 -12 11 -16 24 -14 57 -117 93 -189 66 -23
-9 -24 -8 -16 8 14 27 49 55 84 68 46 17 52 16 79 -5z m-21 -114 c21 -14 39
-38 48 -63 13 -37 12 -44 -5 -79 -24 -50 -62 -77 -106 -77 -118 0 -170 130
-84 209 44 41 96 44 147 10z m-203 -174 c17 -32 73 -72 111 -79 68 -14 150 41
180 121 9 25 10 18 8 -50 -3 -66 -10 -92 -36 -145 -34 -68 -96 -160 -109 -160
-4 0 -7 22 -7 48 0 79 -54 142 -135 157 -42 7 -113 -26 -143 -66 -24 -34 -40
-101 -25 -110 15 -9 1 -42 -15 -36 -6 2 -11 9 -10 15 1 6 -18 20 -43 32 -82
40 -163 11 -204 -74 -46 -96 31 -206 143 -206 44 0 54 4 87 38 42 42 62 98 53
146 l-6 31 36 -32 c33 -29 90 -53 126 -53 28 0 -20 -38 -98 -79 -136 -70 -342
-104 -447 -72 -80 25 -124 43 -124 52 0 5 25 9 56 9 53 0 59 2 100 44 42 41
44 46 44 100 l0 57 143 147 c79 81 177 182 218 226 l74 78 6 -58 c3 -33 11
-69 17 -81z m71 -169 c114 -96 -6 -268 -139 -199 -55 28 -76 105 -45 165 32
63 129 81 184 34z m-293 -140 c46 -31 58 -116 24 -164 -24 -34 -78 -54 -120
-45 -16 3 -43 22 -60 41 -89 102 41 243 156 168z"/>
<path d="M938 1038 c-216 -215 -317 -322 -376 -402 -45 -61 -80 -112 -78 -114
3 -2 49 29 103 69 101 75 373 337 584 561 l120 126 -24 26 c-14 14 -26 26 -29
26 -2 0 -137 -132 -300 -292z m224 156 c-14 -24 -464 -474 -475 -474 -19 0 43
68 253 273 122 120 224 217 226 217 3 0 1 -7 -4 -16z"/>
</g>
</svg>
