<?xml version="1.0" standalone="no"?>
<!DOCTYPE svg PUBLIC "-//W3C//DTD SVG 20010904//EN"
 "http://www.w3.org/TR/2001/REC-SVG-20010904/DTD/svg10.dtd">
<svg version="1.0" xmlns="http://www.w3.org/2000/svg"
 width="225.000000pt" height="225.000000pt" viewBox="0 0 225.000000 225.000000"
 preserveAspectRatio="xMidYMid meet">
<metadata>
Created by potrace 1.10, written by Peter Selinger 2001-2011
</metadata>
<g transform="translate(0.000000,225.000000) scale(0.100000,-0.100000)"
fill="#000000" stroke="none">
<path d="M1630 1777 c-41 -11 -45 -14 -42 -41 l3 -28 -53 5 c-29 4 -152 9
-273 12 -203 6 -222 5 -241 -12 -29 -25 -254 -418 -254 -444 0 -30 14 -51 117
-181 88 -111 95 -118 129 -118 42 0 94 45 94 82 0 13 -23 60 -50 106 -28 46
-50 91 -50 102 0 10 25 50 56 89 41 53 61 71 79 71 29 0 95 -55 95 -79 0 -10
-20 -73 -45 -140 -54 -147 -56 -170 -14 -205 36 -30 78 -34 107 -8 11 9 65 85
120 167 l100 150 70 33 c38 17 72 32 75 32 2 0 7 -9 10 -19 4 -17 10 -18 53
-10 55 10 74 23 57 40 -7 7 -22 8 -45 1 l-34 -9 -34 171 c-18 94 -35 176 -37
182 -2 7 13 14 37 18 31 5 41 11 38 23 -4 22 -15 23 -68 10z m-105 -97 l71 0
22 -120 c13 -67 25 -126 28 -133 2 -7 -31 -30 -83 -57 l-87 -45 -93 -140 c-52
-76 -101 -147 -110 -157 -20 -23 -62 -20 -77 4 -12 20 -6 44 49 198 46 126 44
145 -22 195 -49 37 -95 46 -126 23 -33 -26 -127 -162 -127 -186 0 -13 23 -62
50 -109 52 -88 59 -114 38 -130 -30 -23 -49 -23 -71 0 -52 55 -177 226 -177
243 0 16 175 328 223 398 l21 29 200 -6 c111 -4 233 -7 271 -7z"/>
<path d="M760 1673 c-88 -8 -154 -20 -167 -29 -38 -24 -44 -94 -8 -94 9 0 15
9 15 24 0 13 7 29 15 36 8 7 84 18 172 26 86 8 159 16 161 19 10 10 -9 35 -25
34 -10 -1 -83 -8 -163 -16z"/>
<path d="M795 1540 c-105 -84 -124 -109 -200 -258 -50 -100 -56 -118 -48 -145
12 -43 67 -73 105 -58 33 13 83 84 74 107 -5 13 -9 14 -22 3 -8 -7 -22 -25
-30 -40 -18 -36 -50 -46 -75 -23 -10 9 -19 24 -19 33 1 9 31 72 69 141 65 121
71 128 162 202 52 42 94 82 94 89 0 28 -27 16 -110 -51z"/>
<path d="M686 1563 c-77 -39 -197 -130 -222 -168 -29 -45 6 -115 58 -115 26 0
22 25 -7 44 -14 9 -25 25 -25 35 0 26 136 133 223 178 57 28 67 36 57 49 -7 7
-13 14 -14 14 0 -1 -32 -17 -70 -37z"/>
<path d="M1127 944 c-15 -15 -7 -45 11 -42 9 2 17 12 17 22 0 20 -16 31 -28
20z"/>
<path d="M1073 854 c-9 -23 13 -40 32 -24 12 10 13 16 4 26 -15 18 -28 18 -36
-2z"/>
<path d="M1160 830 c0 -13 7 -20 20 -20 13 0 20 7 20 20 0 13 -7 20 -20 20
-13 0 -20 -7 -20 -20z"/>
<path d="M1040 760 c0 -13 7 -20 20 -20 13 0 20 7 20 20 0 13 -7 20 -20 20
-13 0 -20 -7 -20 -20z"/>
<path d="M1190 750 c0 -13 7 -20 20 -20 13 0 20 7 20 20 0 13 -7 20 -20 20
-13 0 -20 -7 -20 -20z"/>
<path d="M1112 723 c4 -22 43 -25 43 -3 0 8 -11 16 -23 18 -19 3 -23 0 -20
-15z"/>
<path d="M1012 668 c2 -13 10 -23 18 -23 8 0 16 10 18 23 3 17 -2 22 -18 22
-16 0 -21 -5 -18 -22z"/>
<path d="M1220 650 c0 -13 7 -20 18 -20 24 0 32 8 25 26 -8 22 -43 17 -43 -6z"/>
<path d="M1087 644 c-16 -16 -6 -35 16 -32 12 2 22 10 22 18 0 16 -26 25 -38
14z"/>
<path d="M1150 580 c0 -23 35 -28 43 -6 7 18 -1 26 -25 26 -11 0 -18 -7 -18
-20z"/>
<path d="M1243 574 c-8 -21 13 -42 28 -27 13 13 5 43 -11 43 -6 0 -13 -7 -17
-16z"/>
<path d="M984 569 c-3 -6 0 -17 8 -25 13 -13 16 -13 27 0 7 8 10 20 6 26 -8
13 -32 13 -41 -1z"/>
<path d="M34 518 c-3 -4 -2 -14 3 -20 11 -19 12 -37 2 -44 -17 -10 -10 -34 9
-28 15 5 15 4 1 -5 -14 -9 -16 -29 -10 -98 1 -7 7 -13 14 -13 15 0 17 71 2 82
-7 5 -7 8 0 8 6 0 11 29 12 63 1 50 -2 64 -13 64 -8 0 -17 -4 -20 -9z"/>
<path d="M1083 514 c-3 -8 -1 -20 6 -27 14 -14 47 15 37 32 -10 16 -36 13 -43
-5z"/>
<path d="M1173 494 c-8 -21 13 -42 28 -27 13 13 5 43 -11 43 -6 0 -13 -7 -17
-16z"/>
<path d="M39 268 c-5 -27 -3 -98 4 -98 4 0 5 6 1 13 -5 8 -2 8 9 -2 14 -11 17
-11 17 1 0 8 -5 19 -11 25 -8 8 -8 13 0 17 6 4 11 12 11 17 0 6 -6 7 -12 3 -9
-5 -9 -2 1 9 12 15 11 17 -3 17 -9 0 -16 -1 -17 -2z"/>
<path d="M407 162 c-2 -4 -2 -24 0 -44 4 -26 10 -38 21 -38 12 0 13 3 4 12
-15 15 -16 48 -2 48 6 0 10 4 10 9 0 11 -28 22 -33 13z"/>
<path d="M43 145 c4 -8 2 -17 -3 -20 -7 -4 -6 -13 0 -26 8 -14 7 -19 -2 -19
-9 0 -9 -3 2 -10 14 -9 7 -14 -15 -11 -5 1 -1 -6 9 -14 11 -8 22 -15 25 -15 3
0 6 29 7 65 1 51 -2 65 -14 65 -8 0 -12 -6 -9 -15z"/>
<path d="M190 152 c0 -19 22 -72 30 -72 10 0 34 69 26 77 -3 3 -8 -6 -12 -21
-7 -30 -24 -35 -24 -7 0 11 -4 23 -10 26 -5 3 -10 2 -10 -3z"/>
<path d="M270 145 c-7 -8 -10 -25 -6 -40 5 -19 13 -25 33 -25 23 0 25 13 2 16
-5 1 -13 2 -19 3 -5 0 -10 6 -10 11 0 6 3 9 8 9 38 -6 60 22 26 35 -21 8 -20
8 -34 -9z"/>
<path d="M342 148 c-25 -25 -6 -68 30 -68 10 0 18 4 18 9 0 5 -8 8 -17 7 -12
0 -19 7 -21 22 -3 17 2 22 18 22 12 0 18 5 15 10 -8 14 -28 13 -43 -2z"/>
<path d="M457 153 c-4 -3 -7 -19 -7 -34 0 -34 34 -49 58 -25 13 12 13 20 4 41
-11 23 -40 33 -55 18z m43 -32 c0 -11 -5 -23 -11 -27 -15 -9 -33 12 -26 30 9
23 37 20 37 -3z"/>
<path d="M530 115 c1 -32 3 -37 11 -22 5 9 7 22 4 27 -3 6 1 13 9 16 23 9 20
23 -4 21 -17 -1 -20 -8 -20 -42z"/>
<path d="M90 120 c0 -5 16 -10 35 -10 19 0 35 5 35 10 0 6 -16 10 -35 10 -19
0 -35 -4 -35 -10z"/>
<path d="M590 120 c0 -5 18 -10 41 -10 24 0 38 4 34 10 -3 6 -22 10 -41 10
-19 0 -34 -4 -34 -10z"/>
</g>
</svg>
