<?xml version="1.0" standalone="no"?>
<!DOCTYPE svg PUBLIC "-//W3C//DTD SVG 20010904//EN"
 "http://www.w3.org/TR/2001/REC-SVG-20010904/DTD/svg10.dtd">
<svg version="1.0" xmlns="http://www.w3.org/2000/svg"
 width="300.000000pt" height="300.000000pt" viewBox="0 0 300.000000 300.000000"
 preserveAspectRatio="xMidYMid meet">
<metadata>
Created by potrace 1.10, written by Peter Selinger 2001-2011
</metadata>
<g transform="translate(0.000000,300.000000) scale(0.100000,-0.100000)"
fill="#000000" stroke="none">
<path d="M885 2068 c-26 -15 -44 -39 -45 -60 0 -9 43 -88 95 -175 92 -152 95
-160 90 -203 -6 -42 3 -125 20 -192 l7 -28 -81 0 -81 0 0 -58 c0 -121 67 -268
168 -368 l63 -64 327 0 326 0 38 27 c52 36 112 112 150 191 31 66 66 228 54
257 -4 12 -30 15 -146 15 l-140 0 0 60 0 60 30 0 c38 0 353 218 382 264 36 58
-2 190 -72 250 -44 36 -78 34 -298 -20 -233 -58 -237 -61 -237 -172 0 -61 6
-88 25 -131 l25 -53 -33 -67 c-18 -37 -38 -95 -45 -129 l-12 -62 -37 0 c-36 0
-38 2 -38 33 0 82 -109 222 -211 269 -47 22 -54 31 -149 189 -109 183 -123
197 -175 167z m130 -183 c75 -125 82 -141 68 -152 -9 -7 -19 -13 -22 -12 -13
1 -171 284 -166 297 12 31 39 0 120 -133z m1038 108 c33 -35 57 -92 57 -137 0
-40 -9 -49 -180 -169 l-105 -74 -7 44 c-4 25 -14 63 -22 84 -9 22 -16 43 -16
48 0 11 130 65 224 93 58 17 76 26 76 40 0 13 -8 18 -28 18 -36 0 -180 -49
-249 -84 -29 -14 -53 -23 -53 -19 0 5 -18 32 -40 60 -38 51 -39 53 -17 58 12
2 74 18 137 34 152 39 189 39 223 4z m-400 -102 c66 -73 66 -77 9 -134 l-50
-50 -16 53 c-16 55 -21 126 -10 154 10 26 29 19 67 -23z m106 -193 c23 -67 27
-113 11 -123 -20 -12 -30 6 -15 28 19 29 4 57 -22 41 -25 -16 -41 -66 -48
-156 l-7 -78 -68 0 -68 0 14 62 c14 59 48 136 79 180 15 23 95 108 100 108 2
0 13 -28 24 -62z m-592 -77 c46 -62 123 -191 123 -203 0 -5 -18 -8 -40 -8 -33
0 -42 4 -54 28 -12 24 -86 228 -86 238 0 15 21 -5 57 -55z m111 -19 c63 -62
92 -113 92 -161 0 -54 -25 -35 -68 52 -22 45 -59 104 -82 131 -22 26 -40 50
-40 52 0 12 47 -23 98 -74z m-183 -28 c9 -31 27 -80 40 -110 l24 -54 -28 0
c-24 0 -30 6 -40 41 -14 45 -27 179 -18 179 3 0 13 -25 22 -56z m869 -261
c-16 -110 -77 -227 -157 -300 l-47 -43 -308 0 -308 0 -41 35 c-81 69 -150 202
-166 318 l-6 37 520 0 520 0 -7 -47z"/>
</g>
</svg>
