<?xml version="1.0" standalone="no"?>
<!DOCTYPE svg PUBLIC "-//W3C//DTD SVG 20010904//EN"
 "http://www.w3.org/TR/2001/REC-SVG-20010904/DTD/svg10.dtd">
<svg version="1.0" xmlns="http://www.w3.org/2000/svg"
 width="300.000000pt" height="300.000000pt" viewBox="0 0 300.000000 300.000000"
 preserveAspectRatio="xMidYMid meet">
<metadata>
Created by potrace 1.10, written by Peter Selinger 2001-2011
</metadata>
<g transform="translate(0.000000,300.000000) scale(0.100000,-0.100000)"
fill="#000000" stroke="none">
<path d="M1244 2356 c-38 -17 -64 -52 -64 -86 0 -23 -6 -27 -71 -42 -86 -21
-186 -66 -240 -109 -40 -31 -70 -80 -83 -131 -6 -25 -4 -28 20 -28 56 0 107
-25 172 -83 63 -57 113 -87 148 -87 9 0 43 24 75 54 46 43 69 57 112 66 82 19
177 10 223 -21 64 -42 76 -43 120 -8 21 17 62 42 89 55 48 23 60 24 263 24
116 0 212 4 212 9 0 21 -49 76 -84 94 -21 11 -89 33 -150 47 -61 15 -183 47
-271 70 -88 23 -182 45 -210 49 -45 6 -50 8 -47 29 4 30 -21 68 -61 92 -38 23
-107 26 -153 6z m121 -30 c60 -26 71 -72 26 -117 -41 -41 -101 -41 -142 0 -44
45 -34 91 24 116 41 18 50 18 92 1z m-138 -148 c26 -25 43 -32 86 -36 49 -4
57 -2 90 28 l36 31 82 -16 c45 -9 147 -35 228 -56 80 -22 183 -49 229 -60 96
-22 158 -46 148 -57 -4 -4 -87 -9 -184 -12 -191 -6 -213 -12 -301 -78 l-33
-26 -52 30 c-48 27 -58 29 -156 29 -117 0 -139 -8 -222 -76 -26 -22 -57 -39
-71 -39 -15 0 -48 21 -90 58 -58 52 -101 77 -159 96 -26 8 -22 31 12 69 38 44
126 90 219 116 41 11 76 23 79 26 11 11 27 4 59 -27z"/>
<path d="M780 1747 l0 -153 -62 -13 c-95 -20 -285 -84 -379 -129 -192 -92
-307 -227 -283 -335 46 -217 417 -389 994 -463 170 -21 559 -29 740 -15 678
54 1154 262 1154 506 0 167 -235 329 -614 423 l-110 27 0 153 0 154 -197 -4
-198 -3 -83 -49 c-110 -64 -154 -70 -218 -27 -42 28 -55 31 -121 31 -81 0
-129 -18 -173 -65 -36 -39 -73 -55 -124 -55 -63 0 -85 11 -157 76 -59 53 -127
93 -156 94 -10 0 -13 -37 -13 -153z m1374 107 c12 -5 16 -21 16 -66 0 -58 -1
-60 -22 -53 -46 14 -213 17 -321 5 -63 -7 -195 -34 -302 -61 -258 -67 -342
-81 -450 -77 -77 3 -101 9 -167 38 l-76 35 -4 66 c-4 93 -2 102 25 87 12 -6
44 -31 71 -55 69 -61 118 -85 180 -85 60 -1 82 9 148 63 58 48 86 59 151 59
37 -1 69 -9 112 -30 87 -43 133 -38 236 25 31 19 74 39 95 44 44 10 284 14
308 5z m-29 -156 l45 -12 0 -97 0 -97 -52 20 c-47 18 -69 20 -188 15 -124 -5
-154 -10 -375 -67 l-240 -63 -184 -5 c-157 -4 -192 -2 -242 13 l-59 18 0 109
c0 59 3 108 6 108 3 0 19 -9 34 -20 76 -54 178 -73 310 -58 47 6 180 34 296
63 116 29 244 58 285 64 41 6 85 13 99 15 60 8 224 5 265 -6z m-1345 -327 l-1
-201 721 0 721 0 -1 198 c0 108 -1 200 0 204 0 4 45 -8 99 -27 289 -97 425
-239 363 -376 -132 -294 -986 -455 -1715 -324 -325 59 -581 183 -642 311 -52
110 10 220 178 314 54 30 268 112 275 105 2 -2 3 -94 2 -204z m1326 102 l64
-17 0 -117 c0 -97 -3 -118 -16 -123 -20 -8 -1288 -8 -1308 0 -13 5 -16 22 -16
85 0 43 2 79 4 79 2 0 23 -8 47 -17 35 -13 79 -16 204 -16 177 0 235 9 480 73
274 72 417 86 541 53z m-1786 -87 c0 -3 -11 -26 -25 -52 -54 -102 -20 -217 91
-307 158 -128 451 -220 817 -257 117 -12 561 -8 672 5 113 14 347 66 442 98
335 114 485 292 389 462 -14 27 -24 50 -22 53 10 9 101 -52 148 -99 56 -56 68
-82 68 -148 0 -320 -1000 -556 -1875 -441 -551 72 -928 253 -928 445 0 75 64
158 173 224 34 20 50 26 50 17z"/>
</g>
</svg>
