<?xml version="1.0" standalone="no"?>
<!DOCTYPE svg PUBLIC "-//W3C//DTD SVG 20010904//EN"
 "http://www.w3.org/TR/2001/REC-SVG-20010904/DTD/svg10.dtd">
<svg version="1.0" xmlns="http://www.w3.org/2000/svg"
 width="200.000000pt" height="200.000000pt" viewBox="0 0 200.000000 200.000000"
 preserveAspectRatio="xMidYMid meet">
<metadata>
Created by potrace 1.10, written by Peter Selinger 2001-2011
</metadata>
<g transform="translate(0.000000,200.000000) scale(0.100000,-0.100000)"
fill="#000000" stroke="none">
<path d="M690 1926 c-175 -49 -207 -62 -243 -106 -59 -69 -50 -177 30 -357 3
-7 -2 -13 -10 -13 -20 0 -206 -57 -235 -72 -28 -15 -62 -68 -72 -115 -11 -49
12 -133 60 -217 22 -38 40 -74 40 -80 0 -6 -9 -35 -20 -64 -34 -90 -22 -182
35 -257 32 -42 116 -85 164 -85 20 0 86 20 146 44 61 24 112 42 114 40 2 -2
-28 -52 -67 -111 -103 -157 -125 -236 -83 -313 29 -56 73 -80 146 -80 58 0 66
-3 113 -40 87 -69 178 -87 257 -51 52 23 203 117 233 145 40 35 62 90 62 151
l0 55 38 0 c47 0 107 28 252 118 129 80 146 101 156 200 5 46 1 72 -19 129
l-25 72 25 33 c57 75 70 171 37 270 -25 76 -120 170 -194 192 -66 20 -142 20
-204 2 -26 -8 -46 -11 -44 -8 2 4 17 34 33 67 60 120 43 276 -41 374 -58 68
-103 86 -204 82 -145 -6 -173 -4 -215 18 -54 29 -87 26 -265 -23z m281 -7 c35
-18 51 -19 157 -13 107 6 121 5 159 -14 91 -47 147 -158 141 -278 -3 -59 -10
-85 -41 -145 -23 -46 -34 -76 -28 -82 6 -6 31 -4 69 7 125 35 217 13 302 -72
71 -72 95 -134 87 -229 -4 -54 -11 -74 -42 -119 l-37 -54 22 -60 c27 -71 29
-172 6 -222 -12 -25 -46 -51 -141 -110 l-125 -77 22 42 c32 61 32 193 1 258
-13 25 -23 50 -23 56 0 7 15 35 33 64 30 50 32 57 32 148 0 88 -3 101 -30 150
-70 127 -201 177 -364 139 -28 -6 -53 -9 -56 -7 -2 3 7 34 22 69 34 86 43 224
19 296 -20 63 -66 118 -119 147 -38 19 -55 21 -167 19 -118 -2 -128 -1 -184
26 l-60 28 115 31 c125 35 166 35 230 2z m-326 -65 l41 -15 0 -79 c-1 -77 0
-81 58 -192 32 -63 57 -122 55 -132 -3 -13 -36 -30 -123 -62 -66 -24 -121 -44
-123 -44 -2 0 -3 10 -3 22 0 12 -23 67 -50 122 -80 160 -89 264 -28 341 41 52
103 66 173 39z m386 -64 c116 -60 150 -225 84 -414 -23 -66 -25 -80 -13 -92
11 -11 22 -11 68 1 198 53 362 -51 377 -239 7 -87 -7 -133 -69 -218 -10 -14
-7 -26 15 -70 14 -29 29 -77 33 -107 7 -53 7 -53 -17 -46 -66 20 -143 93 -181
170 -12 24 -28 47 -35 49 -20 8 -285 -102 -306 -127 -25 -29 -18 -71 43 -247
39 -114 46 -140 32 -135 -9 3 -51 10 -92 15 -66 7 -78 12 -102 39 -23 26 -28
40 -28 84 0 63 19 106 93 215 67 98 78 129 51 149 -23 17 -38 14 -183 -44
-127 -50 -158 -51 -210 -7 -17 14 -39 50 -51 82 -22 57 -23 94 -4 205 5 32 1
46 -34 100 -46 70 -62 107 -62 142 0 23 1 24 35 9 33 -13 40 -12 177 37 79 28
151 60 160 70 21 25 14 52 -46 162 -48 87 -68 159 -59 211 l5 31 141 -3 c114
-3 148 -7 178 -22z m-517 -390 c21 -53 21 -80 -1 -80 -10 0 -52 16 -94 37
l-76 38 71 21 c39 12 74 22 77 23 4 1 14 -17 23 -39z m-128 -47 c30 -15 34
-21 34 -54 0 -45 20 -94 67 -165 l36 -54 -13 -55 c-16 -68 -8 -159 19 -213 22
-44 77 -92 104 -92 27 0 20 -15 -24 -55 -47 -42 -132 -85 -170 -85 -38 0 -122
46 -148 80 -29 40 -51 103 -51 147 0 19 12 63 26 99 l25 64 -40 67 c-88 149
-94 242 -19 309 12 12 30 24 38 27 21 8 76 -1 116 -20z m589 -553 c8 -12 -13
-52 -80 -150 -92 -135 -105 -227 -42 -296 28 -31 40 -36 104 -44 117 -15 121
-17 128 -62 16 -94 -22 -177 -89 -194 -42 -10 -107 13 -172 62 -54 41 -63 44
-119 44 -72 0 -114 22 -138 73 -35 74 -16 139 92 301 63 96 72 115 69 149 l-2
39 79 30 c44 17 96 36 115 44 43 16 47 17 55 4z m345 -54 c37 -65 117 -140
166 -156 35 -12 36 -14 30 -48 -13 -80 -77 -126 -167 -119 -31 3 -71 12 -90
22 -19 9 -84 69 -146 132 l-112 115 37 15 c20 8 78 32 127 53 50 21 98 38 107
39 10 1 28 -20 48 -53z m-612 -57 c2 -9 -12 -20 -35 -28 -21 -8 -44 -16 -52
-19 -8 -3 3 11 25 31 40 37 57 42 62 16z m312 -38 c0 -4 39 -50 86 -100 88
-94 144 -134 202 -146 31 -6 32 -9 32 -54 0 -93 -37 -138 -196 -236 -68 -41
-68 -41 -49 -4 30 57 16 168 -43 344 -63 190 -67 205 -47 205 8 0 15 -4 15 -9z"/>
</g>
</svg>
