<?xml version="1.0" standalone="no"?>
<!DOCTYPE svg PUBLIC "-//W3C//DTD SVG 20010904//EN"
 "http://www.w3.org/TR/2001/REC-SVG-20010904/DTD/svg10.dtd">
<svg version="1.0" xmlns="http://www.w3.org/2000/svg"
 width="225.000000pt" height="225.000000pt" viewBox="0 0 225.000000 225.000000"
 preserveAspectRatio="xMidYMid meet">
<metadata>
Created by potrace 1.10, written by Peter Selinger 2001-2011
</metadata>
<g transform="translate(0.000000,225.000000) scale(0.100000,-0.100000)"
fill="#000000" stroke="none">
<path d="M1415 2229 c-11 -6 -144 -135 -296 -287 l-277 -275 -32 12 c-47 16
-89 13 -135 -8 -44 -20 -265 -239 -265 -262 0 -26 29 -57 60 -64 17 -4 30 -10
30 -13 0 -4 -104 -111 -231 -237 -127 -127 -237 -242 -245 -257 -18 -35 -18
-141 0 -176 18 -33 612 -625 643 -641 31 -16 139 -14 171 3 15 8 130 118 257
245 126 127 233 231 237 231 3 0 9 -13 13 -30 7 -31 38 -60 64 -60 23 0 242
221 262 265 21 46 24 88 8 135 l-12 32 276 277 c151 152 280 286 286 298 14
28 14 138 0 166 -16 31 -608 625 -641 643 -32 17 -144 18 -173 3z m138 -30
c62 -31 627 -601 652 -656 18 -42 18 -44 0 -85 -13 -31 -98 -123 -293 -320
l-275 -277 6 -61 c8 -94 -3 -119 -105 -226 -119 -124 -122 -126 -164 -80 -18
20 -41 36 -51 36 -9 0 -121 -103 -248 -229 -209 -208 -284 -271 -323 -271 -44
0 -111 57 -375 319 -281 279 -347 355 -347 400 0 45 38 92 266 322 129 130
234 243 234 251 0 8 -16 29 -35 48 -19 19 -35 38 -35 43 0 13 127 143 184 189
48 38 52 40 120 38 39 -1 78 -2 86 -1 8 1 134 120 280 265 239 238 329 316
368 316 7 0 32 -9 55 -21z"/>
<path d="M1418 2132 c-59 -51 -207 -202 -225 -229 -9 -13 -13 -33 -10 -45 9
-36 289 -308 316 -308 15 0 61 38 143 118 124 120 178 184 178 209 0 19 -236
260 -272 279 -46 24 -83 18 -130 -24z m244 -129 l128 -128 -147 -148 -147
-148 -146 146 -145 145 131 130 c172 171 156 171 326 3z"/>
<path d="M1073 1788 c-51 -45 -142 -138 -160 -165 -9 -13 -13 -33 -10 -45 9
-35 289 -308 315 -308 24 0 157 120 203 184 26 35 27 40 15 65 -21 38 -290
301 -309 301 -9 0 -33 -15 -54 -32z m242 -388 l-100 -100 -145 145 -145 145
100 100 100 100 145 -145 145 -145 -100 -100z"/>
<path d="M1835 1801 c-43 -26 -271 -262 -279 -289 -10 -30 8 -53 162 -204 95
-94 135 -128 153 -128 19 0 59 34 156 133 133 134 151 162 138 215 -7 31 -262
292 -285 292 -8 0 -28 -8 -45 -19z m168 -139 c168 -170 168 -154 -3 -326
l-130 -131 -145 145 -145 145 142 146 c79 80 145 147 148 147 4 1 63 -56 133
-126z"/>
<path d="M695 1592 c-34 -22 -117 -108 -133 -139 -19 -34 13 -60 113 -96 l90
-32 90 -178 c50 -97 98 -185 107 -194 9 -9 95 -55 190 -103 l173 -87 31 -87
c33 -89 56 -126 82 -126 7 0 45 30 83 67 78 75 100 122 80 170 -6 16 -188 206
-405 422 -363 363 -396 393 -432 397 -28 4 -48 0 -69 -14z m482 -415 c460
-459 434 -417 326 -528 -37 -38 -69 -66 -73 -62 -3 5 -18 47 -33 94 -15 47
-33 93 -39 102 -7 9 -95 57 -196 106 l-182 91 -91 182 c-49 101 -97 189 -106
196 -9 6 -55 24 -102 39 -47 15 -89 30 -94 33 -4 4 24 36 62 73 111 108 69
134 528 -326z"/>
<path d="M1454 1422 c-51 -38 -170 -165 -179 -191 -9 -29 11 -54 163 -203 95
-95 135 -128 153 -128 19 0 52 28 127 104 56 57 102 111 102 122 0 19 -297
324 -316 324 -6 0 -29 -13 -50 -28z m194 -155 l142 -142 -100 -100 -100 -100
-145 145 -145 145 97 97 c54 54 100 98 103 98 3 0 69 -64 148 -143z"/>
<path d="M595 1308 c-50 -39 -477 -472 -496 -503 -21 -34 -24 -66 -8 -98 16
-31 578 -595 611 -613 15 -8 42 -14 60 -14 29 0 59 26 297 264 l264 264 -6 47
c-3 33 -13 55 -30 73 -15 14 -102 64 -194 111 l-168 86 -85 167 c-93 182 -116
213 -169 228 -47 13 -44 13 -76 -12z m82 -31 c28 -11 42 -34 125 -197 l93
-185 185 -93 c181 -91 185 -95 199 -134 l14 -41 -255 -253 c-233 -234 -257
-254 -288 -254 -32 0 -57 23 -332 298 -276 276 -298 300 -298 332 0 32 19 54
252 287 139 139 257 253 263 252 5 0 24 -6 42 -12z"/>
</g>
</svg>
